# xmcd
#
# Track frame offsets:
#	150
#	18593
#	40453
#	59055
#	81133
#	103910
#	123925
#	132719
#	150032
#	172519
#	190661
#	214300
#	236291
#	259305
#
# Disc length: 3711 seconds
#
# Revision: 1
# Processed by: cddbd v1.4PL0 Copyright (c) Steve Scherf et al.
# Submitted via: audiograbber 1.81.02
#
DISCID=bc0e7d0e
DTITLE=Boyz II Men - Full Circle
DYEAR=2002
DGENRE=Rock
TTITLE0=Relax your mind
TTITLE1=The color of love
TTITLE2=Ain't a thang wrong
TTITLE3=Oh well
TTITLE4=Whatcha need
TTITLE5=On the road again
TTITLE6=Makin' love
TTITLE7=Roll wit me
TTITLE8=Right on time
TTITLE9=Howz about it
TTITLE10=That's why I love you
TTITLE11=I'm OK you're OK
TTITLE12=Luv n u
TTITLE13=I'll show you
EXTD=
EXTT0=
EXTT1=
EXTT2=
EXTT3=
EXTT4=
EXTT5=
EXTT6=
EXTT7=
EXTT8=
EXTT9=
EXTT10=
EXTT11=
EXTT12=
EXTT13=
PLAYORDER=
